# xmcd
#
# Track frame offsets:
# 150
# 18514
# 36796
# 57135
# 75644
# 96516
# 120336
# 143185
# 163904
# 181823
# 198134
#
# Disc length: 2949 seconds
#
#
# Revision: 4
# Processed by: cddbd v1.5.2PL0 Copyright (c) Steve Scherf et al.
# Submitted via: FreeRIP 2.951 
#
DISCID=8a0b830b
DTITLE=Joe Cocker - Respect Yourself
DYEAR=2002
DGENRE=Rock
TTITLE0=You Can Have My Heart
TTITLE1=Love Not War
TTITLE2=You Took It So Hard
TTITLE3=Never Tear Us Apart
TTITLE4=This Is Your Life
TTITLE5=Respect Yourself
TTITLE6=I'm Listening Now
TTITLE7=Leave A Light On
TTITLE8=It's Only Love
TTITLE9=Every Time It Rains
TTITLE10=Midnight Without You
EXTD=
EXTT0=
EXTT1=
EXTT2=
EXTT3=
EXTT4=
EXTT5=
EXTT6=
EXTT7=
EXTT8=
EXTT9=
EXTT10=
PLAYORDER=
